<svg width="115" height="35" viewBox="0 0 115 35" fill="none" xmlns="http://www.w3.org/2000/svg">
<path fill-rule="evenodd" clip-rule="evenodd" d="M6.77655 32.502C8.59918 33.5007 10.6423 34 12.9059 34C14.9343 34 16.7275 33.5594 18.2856 32.6782C19.214 32.1531 20.0225 31.4716 20.7108 30.6335V33.6916H25.9582V1H20.4904V13.0579C19.8254 12.3059 19.0611 11.6938 18.1974 11.2216C16.6393 10.3405 14.8755 9.89987 12.9059 9.89987C10.6423 9.89987 8.59918 10.3992 6.77655 11.3979C4.98332 12.3965 3.57226 13.7917 2.54335 15.5834C1.51445 17.3752 1 19.49 1 21.9279C1 24.3658 1.51445 26.4806 2.54335 28.2724C3.57226 30.0641 4.98332 31.474 6.77655 32.502ZM17.095 28.4045C16.0661 28.992 14.8902 29.2857 13.5673 29.2857C12.2444 29.2857 11.0538 28.992 9.99555 28.4045C8.96664 27.8171 8.12882 26.9653 7.48208 25.8491C6.86474 24.733 6.55607 23.4259 6.55607 21.9279C6.55607 20.4005 6.86474 19.0935 7.48208 18.0067C8.12882 16.8905 8.96664 16.0387 9.99555 15.4513C11.0538 14.8638 12.2444 14.5701 13.5673 14.5701C14.8902 14.5701 16.0661 14.8638 17.095 15.4513C18.1533 16.0387 18.9911 16.8905 19.6084 18.0067C20.2552 19.0935 20.5785 20.4005 20.5785 21.9279C20.5785 23.4259 20.2552 24.733 19.6084 25.8491C18.9911 26.9653 18.1533 27.8171 17.095 28.4045Z" fill="white"/>
<path fill-rule="evenodd" clip-rule="evenodd" d="M37.358 32.4579C39.2395 33.486 41.3854 34 43.796 34C46.236 34 48.3967 33.486 50.2781 32.4579C52.1889 31.4005 53.6735 29.9613 54.7318 28.1402C55.8195 26.3191 56.3633 24.2483 56.3633 21.9279C56.3633 19.5487 55.8195 17.4633 54.7318 15.6716C54.4964 15.2731 54.2399 14.8934 53.9624 14.5327L63.2288 5.12225L61.1618 3.74541L52.3803 12.8706C51.7488 12.3324 51.048 11.8561 50.2781 11.4419C48.3967 10.4139 46.236 9.89987 43.796 9.89987C41.3854 9.89987 39.2395 10.4139 37.358 11.4419C35.4766 12.47 33.9921 13.8945 32.9044 15.7156C31.8167 17.5073 31.2728 19.5781 31.2728 21.9279C31.2728 24.2483 31.8167 26.3191 32.9044 28.1402C33.9921 29.9613 35.4766 31.4005 37.358 32.4579ZM48.8404 16.5489C48.4247 16.115 47.9485 15.7492 47.4119 15.4513C46.3536 14.8638 45.163 14.5701 43.8401 14.5701C42.4878 14.5701 41.2826 14.8638 40.2243 15.4513C39.1954 16.0387 38.3722 16.8905 37.7549 18.0067C37.1376 19.0935 36.8289 20.4005 36.8289 21.9279C36.8289 23.4259 37.1376 24.733 37.7549 25.8491C38.3722 26.9653 39.1954 27.8171 40.2243 28.4045C41.2826 28.992 42.4731 29.2857 43.796 29.2857C45.1483 29.2857 46.3536 28.992 47.4119 28.4045C48.4702 27.8171 49.2933 26.9653 49.8812 25.8491C50.4986 24.733 50.8073 23.4259 50.8073 21.9279C50.8073 20.6012 50.5744 19.4407 50.1086 18.4464L42.2144 26.4632L39.4584 22.6769L41.0087 18.0301L43.9369 21.6443L48.8404 16.5489Z" fill="white"/>
<path d="M80.0221 11.0013C78.5522 10.267 76.8766 9.89987 74.9952 9.89987C72.9374 9.89987 71.1148 10.3111 69.5273 11.1335C68.4791 11.6671 67.5971 12.3602 66.8816 13.2129V10.1642H61.6342V33.6916H67.1461V21.7957C67.1461 20.2096 67.4107 18.9025 67.9399 17.8745C68.4984 16.8171 69.2774 16.024 70.2769 15.4953C71.2764 14.9666 72.4229 14.7023 73.7164 14.7023C75.4802 14.7023 76.8472 15.2163 77.8173 16.2443C78.8168 17.2724 79.3166 18.8291 79.3166 20.9146V33.6916H84.8286V20.2096C84.8286 17.8304 84.4023 15.8919 83.5498 14.3939C82.6973 12.8665 81.5214 11.7356 80.0221 11.0013Z" fill="white"/>
<path fill-rule="evenodd" clip-rule="evenodd" d="M96.053 32.4579C98.0226 33.486 100.316 34 102.932 34C104.99 34 106.812 33.6769 108.4 33.0307C110.017 32.3551 111.354 31.4005 112.413 30.1669L109.458 26.7744C108.635 27.6555 107.694 28.3017 106.636 28.7129C105.578 29.1242 104.387 29.3298 103.064 29.3298C101.536 29.3298 100.183 29.036 99.0074 28.4486C97.8315 27.8611 96.9202 27.024 96.2735 25.9373C95.8659 25.2524 95.5868 24.5034 95.4361 23.6903H113.912C113.941 23.4259 113.956 23.1469 113.956 22.8531C113.985 22.5594 114 22.2951 114 22.0601C114 19.5928 113.486 17.4486 112.457 15.6275C111.428 13.8064 110.017 12.3965 108.223 11.3979C106.43 10.3992 104.387 9.89987 102.094 9.89987C99.7423 9.89987 97.6405 10.4139 95.7884 11.4419C93.9658 12.47 92.5253 13.8945 91.467 15.7156C90.4381 17.5073 89.9237 19.5781 89.9237 21.9279C89.9237 24.2483 90.4528 26.3191 91.5111 28.1402C92.5988 29.9613 94.1128 31.4005 96.053 32.4579ZM95.3868 20.0334C95.5074 19.1509 95.7589 18.3578 96.1412 17.6542C96.7291 16.5968 97.5229 15.7744 98.5224 15.1869C99.5513 14.5995 100.742 14.3057 102.094 14.3057C103.417 14.3057 104.578 14.5995 105.578 15.1869C106.607 15.7744 107.415 16.5821 108.003 17.6101C108.419 18.3371 108.68 19.1449 108.787 20.0334H95.3868Z" fill="white"/>
<path fill-rule="evenodd" clip-rule="evenodd" d="M6.77655 32.502C8.59918 33.5007 10.6423 34 12.9059 34C14.9343 34 16.7275 33.5594 18.2856 32.6782C19.214 32.1531 20.0225 31.4716 20.7108 30.6335V33.6916H25.9582V1H20.4904V13.0579C19.8254 12.3059 19.0611 11.6938 18.1974 11.2216C16.6393 10.3405 14.8755 9.89987 12.9059 9.89987C10.6423 9.89987 8.59918 10.3992 6.77655 11.3979C4.98332 12.3965 3.57226 13.7917 2.54335 15.5834C1.51445 17.3752 1 19.49 1 21.9279C1 24.3658 1.51445 26.4806 2.54335 28.2724C3.57226 30.0641 4.98332 31.474 6.77655 32.502ZM17.095 28.4045C16.0661 28.992 14.8902 29.2857 13.5673 29.2857C12.2444 29.2857 11.0538 28.992 9.99555 28.4045C8.96664 27.8171 8.12882 26.9653 7.48208 25.8491C6.86474 24.733 6.55607 23.4259 6.55607 21.9279C6.55607 20.4005 6.86474 19.0935 7.48208 18.0067C8.12882 16.8905 8.96664 16.0387 9.99555 15.4513C11.0538 14.8638 12.2444 14.5701 13.5673 14.5701C14.8902 14.5701 16.0661 14.8638 17.095 15.4513C18.1533 16.0387 18.9911 16.8905 19.6084 18.0067C20.2552 19.0935 20.5785 20.4005 20.5785 21.9279C20.5785 23.4259 20.2552 24.733 19.6084 25.8491C18.9911 26.9653 18.1533 27.8171 17.095 28.4045Z" stroke="#7A89BF"/>
<path fill-rule="evenodd" clip-rule="evenodd" d="M37.358 32.4579C39.2395 33.486 41.3854 34 43.796 34C46.236 34 48.3967 33.486 50.2781 32.4579C52.1889 31.4005 53.6735 29.9613 54.7318 28.1402C55.8195 26.3191 56.3633 24.2483 56.3633 21.9279C56.3633 19.5487 55.8195 17.4633 54.7318 15.6716C54.4964 15.2731 54.2399 14.8934 53.9624 14.5327L63.2288 5.12225L61.1618 3.74541L52.3803 12.8706C51.7488 12.3324 51.048 11.8561 50.2781 11.4419C48.3967 10.4139 46.236 9.89987 43.796 9.89987C41.3854 9.89987 39.2395 10.4139 37.358 11.4419C35.4766 12.47 33.9921 13.8945 32.9044 15.7156C31.8167 17.5073 31.2728 19.5781 31.2728 21.9279C31.2728 24.2483 31.8167 26.3191 32.9044 28.1402C33.9921 29.9613 35.4766 31.4005 37.358 32.4579ZM48.8404 16.5489C48.4247 16.115 47.9485 15.7492 47.4119 15.4513C46.3536 14.8638 45.163 14.5701 43.8401 14.5701C42.4878 14.5701 41.2826 14.8638 40.2243 15.4513C39.1954 16.0387 38.3722 16.8905 37.7549 18.0067C37.1376 19.0935 36.8289 20.4005 36.8289 21.9279C36.8289 23.4259 37.1376 24.733 37.7549 25.8491C38.3722 26.9653 39.1954 27.8171 40.2243 28.4045C41.2826 28.992 42.4731 29.2857 43.796 29.2857C45.1483 29.2857 46.3536 28.992 47.4119 28.4045C48.4702 27.8171 49.2933 26.9653 49.8812 25.8491C50.4986 24.733 50.8073 23.4259 50.8073 21.9279C50.8073 20.6012 50.5744 19.4407 50.1086 18.4464L42.2144 26.4632L39.4584 22.6769L41.0087 18.0301L43.9369 21.6443L48.8404 16.5489Z" stroke="#7A89BF"/>
<path d="M80.0221 11.0013C78.5522 10.267 76.8766 9.89987 74.9952 9.89987C72.9374 9.89987 71.1148 10.3111 69.5273 11.1335C68.4791 11.6671 67.5971 12.3602 66.8816 13.2129V10.1642H61.6342V33.6916H67.1461V21.7957C67.1461 20.2096 67.4107 18.9025 67.9399 17.8745C68.4984 16.8171 69.2774 16.024 70.2769 15.4953C71.2764 14.9666 72.4229 14.7023 73.7164 14.7023C75.4802 14.7023 76.8472 15.2163 77.8173 16.2443C78.8168 17.2724 79.3166 18.8291 79.3166 20.9146V33.6916H84.8286V20.2096C84.8286 17.8304 84.4023 15.8919 83.5498 14.3939C82.6973 12.8665 81.5214 11.7356 80.0221 11.0013Z" stroke="#7A89BF"/>
<path fill-rule="evenodd" clip-rule="evenodd" d="M96.053 32.4579C98.0226 33.486 100.316 34 102.932 34C104.99 34 106.812 33.6769 108.4 33.0307C110.017 32.3551 111.354 31.4005 112.413 30.1669L109.458 26.7744C108.635 27.6555 107.694 28.3017 106.636 28.7129C105.578 29.1242 104.387 29.3298 103.064 29.3298C101.536 29.3298 100.183 29.036 99.0074 28.4486C97.8315 27.8611 96.9202 27.024 96.2735 25.9373C95.8659 25.2524 95.5868 24.5034 95.4361 23.6903H113.912C113.941 23.4259 113.956 23.1469 113.956 22.8531C113.985 22.5594 114 22.2951 114 22.0601C114 19.5928 113.486 17.4486 112.457 15.6275C111.428 13.8064 110.017 12.3965 108.223 11.3979C106.43 10.3992 104.387 9.89987 102.094 9.89987C99.7423 9.89987 97.6405 10.4139 95.7884 11.4419C93.9658 12.47 92.5253 13.8945 91.467 15.7156C90.4381 17.5073 89.9237 19.5781 89.9237 21.9279C89.9237 24.2483 90.4528 26.3191 91.5111 28.1402C92.5988 29.9613 94.1128 31.4005 96.053 32.4579ZM95.3868 20.0334C95.5074 19.1509 95.7589 18.3578 96.1412 17.6542C96.7291 16.5968 97.5229 15.7744 98.5224 15.1869C99.5513 14.5995 100.742 14.3057 102.094 14.3057C103.417 14.3057 104.578 14.5995 105.578 15.1869C106.607 15.7744 107.415 16.5821 108.003 17.6101C108.419 18.3371 108.68 19.1449 108.787 20.0334H95.3868Z" stroke="#7A89BF"/>
</svg>
